<svg xmlns="http://www.w3.org/2000/svg" version="1.1" xmlns:xlink="http://www.w3.org/1999/xlink" xmlns:svgjs="http://svgjs.dev/svgjs" width="1000" height="1125" viewBox="0 0 1000 1125"><g transform="matrix(1,0,0,1,1.7053025658242404e-13,0)"><svg viewBox="0 0 320 360" data-background-color="#ffffff" preserveAspectRatio="xMidYMid meet" height="1125" width="1000" xmlns="http://www.w3.org/2000/svg" xmlns:xlink="http://www.w3.org/1999/xlink"><g id="tight-bounds" transform="matrix(1,0,0,1,0,0)"><svg viewBox="0 0 320 360" height="360" width="320"><g><svg></svg></g><g><svg viewBox="0 0 320 360" height="360" width="320"><g><path xmlns="http://www.w3.org/2000/svg" d="M20.961 227.22l3.726 4.658-1.863-6.056c-0.466-2.795-3.726 0.466-1.863 1.398M25.153 224.425c1.397 2.329 2.795 4.658 2.795 6.987 0 3.261 2.795 4.658 5.123 5.589-3.261-3.726-5.124-13.974-7.918-12.576M204.017 26.929c7.918 0 15.371-0.932 23.756 0.931 20.495 5.124 37.729 15.371 49.374 29.811l32.606 52.169c1.397 13.042 4.192 27.482 3.726 43.319 3.261 0 2.795-4.658 6.521-5.59-3.726 9.316-5.59 20.961-6.521 34.469-2.329-7.453 0-18.632 0.466-24.687-3.261 5.124-5.124 1.397-5.124-0.932 0.466-3.726-1.397-3.261-2.795-4.658-5.124-4.658-8.384-9.782-12.11-17.7 2.329-6.055 2.795-14.905-4.658-19.563-2.329-1.397-5.124-3.726-6.521-7.453-1.863-5.124-5.124-11.179-4.193-19.097 0.466-2.329-6.987 5.124-11.179 1.863-18.166-12.576-36.332-27.016-58.224-39.127-11.645 0-20.029-4.192-24.221-9.316-3.726-4.658-0.932-10.713 4.658-11.179 3.261 0 6.987-0.932 9.782 0.932 0.466-1.863 2.329-4.192 4.657-4.192M157.904 16.215l0.932 0.466c4.658 0.932 6.987 7.453 12.11 5.124 0 3.261 0.466 6.521-0.466 8.85-1.397 3.726-5.59 3.726-8.85 3.726-31.208-1.863-49.374 11.179-68.471 22.358-5.124 3.261-10.713 5.59-14.906 9.782-20.029 18.632-41.921 35.866-47.045 70.335l-4.192 38.195c-0.466 4.192-5.124 8.384-4.192 13.508l3.26 22.824c-3.261-3.261-5.124 0.932-4.192 2.795 0.466 1.397 2.329 6.055 5.124 1.863 3.726 6.987 7.453 20.495 12.576 26.55 15.837 18.632 36.332 35.4 53.101 52.169 4.192-0.932 7.453-0.932 8.384-3.727 1.397 2.795-1.397 5.59-3.726 6.056 7.453 4.658 15.837 8.85 27.016 9.781 14.44 0.932 27.948 3.261 40.524 6.522 6.521-1.863 13.042-2.795 20.029-3.261 2.329 0 3.726-3.726 6.521-4.658l0.466-4.658c2.795 4.192 2.329-1.397 0.466-4.192 3.261 2.795 4.192 5.124 5.589 6.987 0-1.397 3.726-6.521 3.727-0.466l0.931-6.055c1.397-0.932 1.863 5.124 3.261 0.931 1.397-4.192 4.192-0.932 6.987-2.329-0.932 1.863-0.466 5.59 2.794 3.261l3.727-3.261c2.329 5.59 6.055 3.261 7.918 2.329 20.495-13.042 40.99-28.413 60.553-43.784l-0.466 6.055 2.329-7.453c2.329 2.329 4.192 0.466 5.124-0.931 2.795-4.658 6.521-9.316 12.577-13.508-7.453 20.029-16.303 35.866-27.482 48.908l-4.658 5.59c0 3.261-0.932 7.453-4.658 7.918-1.863 0.466-5.59-0.932-8.384 1.863-1.397 1.863 3.261 5.59-0.466 2.795-3.261-2.329-6.521 0-10.248 0.932-2.795 0.932 1.863 3.726 2.795 5.589 0.932 1.863 1.863 3.726 1.398 6.056l-5.124-5.59c-6.055 3.261-9.782 9.316-14.906 13.974-2.329 1.863-1.397 5.124-1.397 7.918-3.261 0-6.987-0.932-8.85 0.932-1.397 1.863-0.932 4.658-0.932 7.453-4.658-0.466-5.124-7.453-9.315-6.056-4.192 0.932-8.85 1.397-12.577 3.727 2.795 5.59-4.658 2.329-3.726 3.26-6.987-4.192-13.042-7.453-20.495-4.658-15.837-5.124-35.4-2.795-49.84-0.931 0-2.329 0.466-4.658-0.466-5.124-0.932 2.329-3.726 1.397-3.26 1.397-8.85-6.055-17.7-9.782-27.016-14.905-8.384 0.932-16.303-3.261-18.632-5.59-6.521-6.055-13.974-2.795-20.029-4.192-13.042-3.261-17.7-16.769-19.098-26.084-0.932-4.658-4.658-6.521-6.055-6.056-6.055-19.563-15.371-37.263-22.824-55.429-1.863-4.658-1.397-9.316-1.397-14.44 2.329 0.932 4.658 0.466 4.192-2.794-2.329-15.371-7.918-27.016-13.974-38.195 3.261-15.837 3.726-34.469 11.179-48.443 6.521-12.576 18.632-19.098 27.016-29.811 2.795-3.726 2.795-8.85 5.59-12.11 9.316-9.316 18.632-19.098 28.879-27.482 4.658-3.726 10.247 0 17.234-1.397 2.329-8.384 11.645-15.837 20.495-13.508 3.726 0.932 11.179-8.85 13.508-9.782 3.726-1.397 1.863 3.726 1.863 6.987 8.85-6.987 20.961-10.713 32.14-14.906" fill="#ef86c1" fill-rule="nonzero" stroke="none" stroke-width="1" stroke-linecap="butt" stroke-linejoin="miter" stroke-miterlimit="10" stroke-dasharray="" stroke-dashoffset="0" font-family="none" font-weight="none" font-size="none" text-anchor="none" style="mix-blend-mode: normal" data-fill-palette-color="tertiary"></path></g><g transform="matrix(1,0,0,1,64,126.49707112970711)"><svg viewBox="0 0 192 107.00585774058577" height="107.00585774058577" width="192"><g><svg viewBox="0 0 192 107.00585774058577" height="107.00585774058577" width="192"><g><svg viewBox="0 0 192 107.00585774058577" height="107.00585774058577" width="192"><g><svg viewBox="0 0 192 107.00585774058577" height="107.00585774058577" width="192"><g id="textblocktransform"><svg viewBox="0 0 192 107.00585774058577" height="107.00585774058577" width="192" id="textblock"><g><svg viewBox="0 0 192 107.00585774058577" height="107.00585774058577" width="192"><g transform="matrix(1,0,0,1,0,0)"><svg width="192" viewBox="1.9000000953674316 -32.5 59.75 33.29999923706055" height="107.00585774058577" data-palette-color="#ef86c1"><path d="M25.7 0.8Q22.45 0.8 20.25-3.85L20.25-3.85 15.9-12.65 12.35-12.65 12.25-7Q12.25-5.25 12.5-4.48 12.75-3.7 13.45-3.45 14.15-3.2 15.85-3.15L15.85-3.15 16-2.85 15.55 0.2Q14.65 0.15 12.4 0.1 10.15 0.05 8.25 0.05L8.25 0.05Q6.4 0.05 4.45 0.15 2.5 0.25 1.9 0.3L1.9 0.3 2.35-3Q4.45-3.25 5.18-4.1 5.9-4.95 5.9-7.1L5.9-7.1 5.9-26.45Q5.9-27.9 5.58-28.4 5.25-28.9 4.3-28.9L4.3-28.9Q3.75-28.9 3.25-28.85 2.75-28.8 2.6-28.8L2.6-28.8 2.3-29.2 2.75-32.2Q3.45-32.2 5.33-32.15 7.2-32.1 9-32.1L9-32.1Q11-32.1 13.33-32.18 15.65-32.25 16.55-32.3L16.55-32.3Q22.25-32.3 25.28-30.1 28.3-27.9 28.3-23.75L28.3-23.75Q28.3-20.8 26.55-18.35 24.8-15.9 21.55-14.25L21.55-14.25 25.95-7.1Q27.35-4.8 28.65-3.8 29.95-2.8 31.55-2.8L31.55-2.8 31.9-2.35 31.55 0.25 25.7 0.8ZM17-16.5Q18.65-17.2 20-18.57 21.35-19.95 21.35-22.85L21.35-22.85Q21.35-25.6 19.5-26.95 17.65-28.3 13.8-28.3L13.8-28.3Q13.3-28.3 13.13-28.1 12.95-27.9 12.9-27.2L12.9-27.2Q12.6-22.05 12.5-17L12.5-17 17-16.5ZM41.35 0.75Q40.6-2.05 38.17-10.95 35.75-19.85 33.9-25.85L33.9-25.85Q33.45-27.4 32.57-28.13 31.7-28.85 30.15-28.9L30.15-28.9 29.95-29.25 30.3-32.2Q31-32.2 32.85-32.15 34.7-32.1 36.6-32.1L36.6-32.1Q38.85-32.1 41.52-32.27 44.2-32.45 45-32.5L45-32.5 45.25-32.1 45.05-29.15Q43.3-28.95 42.5-28.78 41.7-28.6 41.42-28.25 41.15-27.9 41.15-27.2L41.15-27.2Q41.15-26.1 43.1-17.78 45.05-9.45 45.8-6.45L45.8-6.45 46.55-6.45Q47.75-9.5 50.35-17.9 52.95-26.3 52.95-27.4L52.95-27.4Q52.95-28.25 52.37-28.6 51.8-28.95 50.35-28.95L50.35-28.95 48.35-28.95 48.15-29.3 48.45-32.35Q49.15-32.3 51.52-32.2 53.9-32.1 55.85-32.1L55.85-32.1Q57.85-32.1 59.47-32.15 61.1-32.2 61.65-32.2L61.65-32.2 61.3-28.95Q60.05-28.75 59.55-28.28 59.05-27.8 58.55-26.35L58.55-26.35 49.3-0.25 41.35 0.75Z" opacity="1" transform="matrix(1,0,0,1,0,0)" fill="#ef86c1" class="undefined-text-0" data-fill-palette-color="primary" id="text-0"></path></svg></g></svg></g></svg></g></svg></g><g></g></svg></g></svg></g></svg></g></svg></g><defs></defs></svg><rect width="320" height="360" fill="none" stroke="none" visibility="hidden"></rect></g></svg></g></svg>